<svg width="40" height="40" viewBox="0 0 40 40" fill="none" xmlns="http://www.w3.org/2000/svg">
<rect width="40" height="40" rx="4" fill="#F4FBFD"/>
<path d="M30.2348 18.2466H29.7693H27.8587C27.6838 17.4634 27.3905 16.7257 27.003 16.0494C26.8362 15.7581 26.6532 15.4801 26.4514 15.2155C26.2496 14.9509 26.0343 14.697 25.8029 14.4564C25.4181 14.0581 24.9902 13.7 24.5301 13.3872C24.2529 13.2001 23.965 13.0291 23.6636 12.8767C22.5631 12.3181 21.3172 12 19.9987 12C16.1561 12 12.9458 14.6729 12.1413 18.2466H9.76522C8.79112 18.2466 8 19.0324 8 20C8 20.9676 8.79112 21.7534 9.76522 21.7534H12.1413C12.9458 25.3271 16.1588 28 19.9987 28C21.3199 28 22.5658 27.6846 23.6636 27.1233C23.9623 26.9709 24.2529 26.7999 24.5301 26.6128C24.9902 26.3 25.4181 25.9419 25.8029 25.5436C26.0343 25.3057 26.2496 25.0518 26.4514 24.7845C26.6532 24.5172 26.8362 24.2392 27.003 23.9506C27.3905 23.2743 27.6811 22.5339 27.8587 21.7534H29.7693H30.2348C31.2089 21.7534 32 20.9676 32 20C32 19.0324 31.2089 18.2466 30.2348 18.2466ZM24.3444 21.7534C24.3014 21.8603 24.2529 21.9646 24.2018 22.0662C24.0484 22.3735 23.8628 22.6622 23.6475 22.9242C23.5049 23.1006 23.3488 23.2663 23.182 23.4186C22.9317 23.6485 22.6546 23.8517 22.3586 24.0254C22.0626 24.1965 21.745 24.3381 21.4114 24.4424C21.188 24.5119 20.9593 24.5653 20.7252 24.6027C20.4911 24.6402 20.2489 24.6589 20.004 24.6589C19.8803 24.6589 19.7592 24.6535 19.6381 24.6455C19.3986 24.6268 19.1618 24.5894 18.9331 24.5386C18.7043 24.4851 18.481 24.4156 18.2657 24.3301C18.1581 24.2873 18.0531 24.2419 17.9482 24.1911C17.741 24.0895 17.5446 23.9746 17.3562 23.8463C17.262 23.7822 17.1705 23.7153 17.0817 23.6432C16.7265 23.3598 16.4117 23.0284 16.1507 22.6542C16.0861 22.5606 16.0242 22.4644 15.965 22.3682C15.8493 22.1731 15.7471 21.9673 15.6583 21.7534C15.6017 21.6171 15.5533 21.4808 15.5103 21.3391C15.3811 20.9141 15.3111 20.4651 15.3111 20C15.3111 19.5349 15.3811 19.0859 15.5103 18.6609C15.5533 18.5192 15.6017 18.3802 15.6583 18.2466C15.7444 18.0327 15.8493 17.8296 15.965 17.6318C16.0242 17.5329 16.0861 17.4394 16.1507 17.3458C16.4117 16.9743 16.7238 16.6402 17.0817 16.3568C17.1705 16.2873 17.262 16.2178 17.3562 16.1537C17.5446 16.0254 17.7437 15.9105 17.9482 15.8089C18.0505 15.7581 18.1581 15.7127 18.2657 15.6699C18.481 15.5844 18.7043 15.5149 18.9331 15.4614C19.1618 15.408 19.3986 15.3705 19.6381 15.3545C19.7592 15.3465 19.8803 15.3411 20.004 15.3411C20.2489 15.3411 20.4911 15.3598 20.7252 15.3973C20.9593 15.4347 21.1907 15.4881 21.4114 15.5576C21.745 15.6619 22.0626 15.8035 22.3586 15.9746C22.6546 16.1457 22.9317 16.3488 23.182 16.5814C23.3488 16.7337 23.5049 16.8994 23.6475 17.0758C23.8628 17.3405 24.0484 17.6265 24.2018 17.9338C24.2529 18.0354 24.3014 18.1397 24.3444 18.2466C24.5651 18.7892 24.6916 19.3799 24.6916 20C24.6916 20.6201 24.5651 21.2135 24.3444 21.7534Z" fill="#2EBED8"/>
</svg>
