<svg xmlns="http://www.w3.org/2000/svg" style="display: none;">
  <defs>
    <symbol id="home-16" viewBox="0 0 16 16">
      <path d="M9 9v4H7V9h2M8 0c-.2 0-.4.1-.6.2l-7 5c-.4.3-.5.9-.2 1.4.2.3.5.4.8.4.2 0 .4-.1.6-.2l.4-.3V14c0 .6.4 1 1 1h10c.6 0 1-.4 1-1V6.5l.4.3c.2.1.4.2.6.2.3 0 .6-.1.8-.4.3-.4.2-1.1-.2-1.4l-7-5C8.4.1 8.2 0 8 0zM4 13V5.1l4-2.9 4 2.9V13h-1V8c0-.6-.4-1-1-1H6c-.6 0-1 .4-1 1v5H4z"/>
    </symbol>

    <symbol id="pipeline-16" viewBox="0 0 16 16">
      <path d="M5.7 8.7L7 7.4l1.3 1.3c.2.2.4.3.7.3.3 0 .5-.1.7-.3l2-2c.4-.4.4-1 0-1.4-.4-.4-1-.4-1.4 0L9 6.6 7.7 5.3c-.4-.4-1-.4-1.4 0l-2 2c-.4.4-.4 1 0 1.4.4.4 1 .4 1.4 0z" transform="translate(-612 -229) translate(612 229)"/>
      <path d="M15 1H9c0-.6-.4-1-1-1S7 .4 7 1H1c-.6 0-1 .4-1 1s.4 1 1 1v9c0 .6.4 1 1 1h5v1H5c-.6 0-1 .4-1 1s.4 1 1 1h6c.6 0 1-.4 1-1s-.4-1-1-1H9v-1h5c.6 0 1-.4 1-1V3c.6 0 1-.4 1-1s-.4-1-1-1zm-2 10H3V3h10v8z" transform="translate(-612 -229) translate(612 229)"/>
    </symbol>

    <symbol id="search-16" viewBox="0 0 16 16">
      <path fill-rule="evenodd" clip-rule="evenodd" d="M1.75 6.33333C1.75 3.80203 3.80203 1.75 6.33333 1.75C8.86464 1.75 10.9167 3.80203 10.9167 6.33333C10.9167 7.56577 10.4302 8.68459 9.63889 9.50828C9.61486 9.52705 9.59172 9.54749 9.5696 9.5696C9.54749 9.59172 9.52705 9.61486 9.50828 9.63889C8.68459 10.4302 7.56577 10.9167 6.33333 10.9167C3.80203 10.9167 1.75 8.86464 1.75 6.33333ZM10.0719 11.1326C9.04048 11.9373 7.74289 12.4167 6.33333 12.4167C2.9736 12.4167 0.25 9.69307 0.25 6.33333C0.25 2.9736 2.9736 0.25 6.33333 0.25C9.69307 0.25 12.4167 2.9736 12.4167 6.33333C12.4167 7.74289 11.9373 9.04048 11.1326 10.0719L13.5303 12.4696C13.8232 12.7625 13.8232 13.2374 13.5303 13.5303C13.2374 13.8232 12.7625 13.8232 12.4696 13.5303L10.0719 11.1326Z" />
    </symbol>

    <symbol id="connector-16" viewBox="0 0 16 16">
      <path fill-rule="evenodd" clip-rule="evenodd" d="M13.5125 3.8875C13.8625 3.5375 14.3875 3.5375 14.7375 3.8875C15.0875 4.2375 15.0875 4.7625 14.7375 5.1125L12.2875 7.5625L12.9875 8.2625L13.8625 9.1375C14.2125 9.4875 14.2125 10.0125 13.8625 10.3625C13.6875 10.5375 13.425 10.625 13.25 10.625C13.075 10.625 12.8125 10.5375 12.6375 10.3625L12.375 10.1L9.4875 12.9875C9.3125 13.1625 9.1375 13.25 8.875 13.25C8.6125 13.25 8.4375 13.1625 8.2625 12.9875L6.25 10.975L2.4875 14.7375C2.3125 14.9125 2.1375 15 1.875 15C1.6125 15 1.4375 14.9125 1.2625 14.7375C0.9125 14.3875 0.9125 13.8625 1.2625 13.5125L5.025 9.75L3.0125 7.7375C2.6625 7.3875 2.6625 6.8625 3.0125 6.5125L5.9 3.625L5.6375 3.3625C5.2875 3.0125 5.2875 2.4875 5.6375 2.1375C5.9875 1.7875 6.5125 1.7875 6.8625 2.1375L7.7375 3.0125L8.4375 3.7125L10.8875 1.2625C11.2375 0.9125 11.7625 0.9125 12.1125 1.2625C12.4625 1.6125 12.4625 2.1375 12.1125 2.4875L9.6625 4.9375L11.0625 6.3375L13.5125 3.8875ZM4.84998 7.12494L8.87498 11.1499L11.15 8.87494L7.12498 4.84994L4.84998 7.12494Z"/>
    </symbol>

    <symbol id="up-arrow-16" viewBox="0 0 16 16">
      <path d="M6 0C6.3 0 6.5 0.1 6.7 0.3L11.7 5.3C12.1 5.7 12.1 6.3 11.7 6.7C11.3 7.1 10.7 7.1 10.3 6.7L6 2.4L1.7 6.7C1.3 7.1 0.7 7.1 0.3 6.7C-0.1 6.3 -0.1 5.7 0.3 5.3L5.3 0.3C5.5 0.1 5.7 0 6 0Z"/>
    </symbol>

    <symbol id="down-arrow-16" viewBox="0 0 16 16">
      <path d="M6 7C5.7 7 5.5 6.9 5.3 6.7L0.3 1.7C-0.1 1.3 -0.1 0.7 0.3 0.3C0.7 -0.1 1.3 -0.1 1.7 0.3L6 4.6L10.3 0.3C10.7 -0.1 11.3 -0.1 11.7 0.3C12.1 0.7 12.1 1.3 11.7 1.7L6.7 6.7C6.5 6.9 6.3 7 6 7Z"/>
    </symbol>

    <symbol id="down-arrow-24" viewBox="0 0 24 24" fill="none"
      xmlns="http://www.w3.org/2000/svg">
      <path d="M6 9L12 15L18 9" stroke-width="2" stroke-linecap="round" stroke-linejoin="round"/>
    </symbol>

    <symbol id="action-menu-16" viewBox="0 0 16 16">
      <circle cx="8" cy="3" r="1.5"/>
      <circle cx="8" cy="8" r="1.5"/>
      <circle cx="8" cy="13" r="1.5"/>
    </symbol>

    <symbol id="right-arrow-16" viewBox="0 0 16 16">
      <path d="M7 6.5C7 6.8 6.9 7 6.7 7.2L1.7 12.2C1.3 12.6 0.7 12.6 0.3 12.2C-0.0999999 11.8 -0.0999999 11.2 0.3 10.8L4.6 6.5L0.3 2.2C-0.0999999 1.8 -0.0999999 1.2 0.3 0.8C0.7 0.400001 1.3 0.400001 1.7 0.8L6.7 5.8C6.9 6 7 6.2 7 6.5Z"/>
    </symbol>

    <symbol id="left-arrow-16" viewBox="0 0 8 13">
      <path d="M0 6.5C0 6.2 0.1 6 0.3 5.8L5.3 0.8C5.7 0.4 6.3 0.4 6.7 0.8C7.1 1.2 7.1 1.8 6.7 2.2L2.4 6.5L6.7 10.8C7.1 11.2 7.1 11.8 6.7 12.2C6.3 12.6 5.7 12.6 5.3 12.2L0.3 7.2C0.1 7 0 6.8 0 6.5Z"/>
    </symbol>

    <symbol id="close-16" viewBox="0 0 16 16">
      <path d="M1 12.5C0.7 12.5 0.5 12.4 0.3 12.2C-0.1 11.8 -0.1 11.2 0.3 10.8L4.6 6.5L0.4 2.2C0 1.8 0 1.2 0.4 0.8C0.8 0.4 1.4 0.4 1.8 0.8L6 5.1L10.3 0.8C10.7 0.4 11.3 0.4 11.7 0.8C12.1 1.2 12.1 1.8 11.7 2.2L7.4 6.5L11.7 10.8C12.1 11.2 12.1 11.8 11.7 12.2C11.3 12.6 10.7 12.6 10.3 12.2L6 7.9L1.7 12.2C1.5 12.4 1.3 12.5 1 12.5Z"/>
    </symbol>

    <symbol id="drag-handle-16" viewBox="0 0 16 16">
      <circle cx="6" cy="4" r="1.5"/>
      <circle cx="10" cy="4" r="1.5"/>

      <circle cx="6" cy="8" r="1.5"/>
      <circle cx="10" cy="8" r="1.5"/>

      <circle cx="6" cy="12" r="1.5"/>
      <circle cx="10" cy="12" r="1.5"/>
    </symbol>

    <symbol id="play-16" viewBox="0 0 6 8">
      <path d="M0 8V0L6 4.30769L0 8Z"/>
    </symbol>

    <symbol id="play-24" viewBox="0 0 24 24" fill="none">
      <path d="M5 3L19 12L5 21V3Z" stroke-width="2" stroke-linecap="round" stroke-linejoin="round"/>
    </symbol>

    <symbol id="asterisk-16" viewBox="0 0 32 30">
      <path d="M 0,14.355469 2.2460938,7.421875 C 7.4218645,9.2448552 11.181626,10.82363 13.525391,12.158203 12.906885,6.2663426 12.581365,2.2136123 12.548828,0 l 7.080078,0 c -0.09768,3.2227258 -0.472027,7.2591801 -1.123047,12.109375 3.35284,-1.692646 7.193982,-3.2551444 11.523438,-4.6875 l 2.246094,6.933594 c -4.134146,1.367244 -8.186877,2.278702 -12.158204,2.734375 1.985652,1.725314 4.785129,4.801483 8.398438,9.228515 L 22.65625,30.46875 C 20.768205,27.89718 18.53839,24.397835 15.966797,19.970703 13.557926,24.560595 11.442043,28.059941 9.6191406,30.46875 L 3.8574219,26.318359 C 7.6334528,21.663463 10.335273,18.587294 11.962891,17.089844 7.763661,16.276098 3.7760348,15.364641 0,14.355469"/>
    </symbol>

    <symbol id="pencil-16" viewBox="0 0 16 15">
      <path d="M11.3334 1.50004C11.5085 1.32494 11.7163 1.18605 11.9451 1.09129C12.1739 0.996527 12.4191 0.947754 12.6667 0.947754C12.9143 0.947754 13.1595 0.996527 13.3883 1.09129C13.6171 1.18605 13.8249 1.32494 14 1.50004C14.1751 1.67513 14.314 1.883 14.4088 2.11178C14.5036 2.34055 14.5523 2.58575 14.5523 2.83337C14.5523 3.08099 14.5036 3.32619 14.4088 3.55497C14.314 3.78374 14.1751 3.99161 14 4.16671L5.00004 13.1667L1.33337 14.1667L2.33337 10.5L11.3334 1.50004Z" stroke-width="1.5" stroke-linecap="round" stroke-linejoin="round"/>
    </symbol>

    <symbol id="pause-16" viewBox="0 0 7 9">
      <path d="M2.93182 0.272727H0.5625V9H2.93182V0.272727ZM6.62401 0.272727H4.25469V9H6.62401V0.272727Z"/>
    </symbol>

    <symbol id="pause-24" viewBox="0 0 24 24" fill="none">
      <path d="M10 4H6V20H10V4Z" stroke-width="2" stroke-linecap="round" stroke-linejoin="round"/>
      <path d="M18 4H14V20H18V4Z" stroke-width="2" stroke-linecap="round" stroke-linejoin="round"/>
    </symbol>

    <symbol id="settings-16" viewBox="0 0 24 24">
      <path fill-rule="evenodd" clip-rule="evenodd" fill="currentColor" d="M11.2929 2.29289C11.4804 2.10536 11.7348 2 12 2C12.2652 2 12.5196 2.10536 12.7071 2.29289C12.8946 2.48043 13 2.73478 13 3V3.09L13 3.09399C13.0021 3.6108 13.1552 4.11572 13.4406 4.54661C13.7249 4.97601 14.1282 5.3132 14.6011 5.51701C15.0843 5.72908 15.6198 5.79211 16.139 5.69796C16.66 5.60349 17.1407 5.35512 17.5193 4.98486L17.5193 4.98491L17.5271 4.9771L17.5871 4.9171L17.5875 4.91671C17.6804 4.82374 17.7907 4.74998 17.9121 4.69965C18.0335 4.64933 18.1636 4.62343 18.295 4.62343C18.4264 4.62343 18.5565 4.64933 18.6779 4.69965C18.7993 4.74998 18.9096 4.82374 19.0025 4.91671L19.0033 4.9175C19.0963 5.01037 19.17 5.12066 19.2203 5.24206C19.2707 5.36346 19.2966 5.49359 19.2966 5.625C19.2966 5.75641 19.2707 5.88654 19.2203 6.00794C19.17 6.12934 19.0963 6.23963 19.0033 6.3325L19.0029 6.3329L18.9429 6.3929L18.9428 6.39285L18.9351 6.40073C18.5649 6.77925 18.3165 7.26 18.222 7.781C18.14 8.23332 18.1773 8.69798 18.3284 9.12961C18.3403 9.22042 18.3646 9.30938 18.4009 9.39393C18.6045 9.86896 18.9425 10.2741 19.3734 10.5594C19.8043 10.8448 20.3092 10.9979 20.826 11L20.83 11H21C21.2652 11 21.5196 11.1054 21.7071 11.2929C21.8946 11.4804 22 11.7348 22 12C22 12.2652 21.8946 12.5196 21.7071 12.7071C21.5196 12.8946 21.2652 13 21 13L20.91 13L20.906 13C20.3892 13.0021 19.8843 13.1552 19.4534 13.4406C19.024 13.725 18.6867 14.1283 18.4829 14.6012C18.2709 15.0843 18.2079 15.6198 18.302 16.139C18.3965 16.66 18.6449 17.1407 19.0151 17.5193L19.0151 17.5193L19.0229 17.5271L19.0829 17.5871L19.0833 17.5875C19.1763 17.6804 19.25 17.7907 19.3003 17.9121C19.3507 18.0335 19.3766 18.1636 19.3766 18.295C19.3766 18.4264 19.3507 18.5565 19.3003 18.6779C19.25 18.7993 19.1763 18.9096 19.0833 19.0025L19.0825 19.0033C18.9896 19.0963 18.8793 19.17 18.7579 19.2203C18.6365 19.2707 18.5064 19.2966 18.375 19.2966C18.2436 19.2966 18.1135 19.2707 17.9921 19.2203C17.8707 19.17 17.7604 19.0963 17.6675 19.0033L17.6671 19.0029L17.6071 18.9429L17.6071 18.9429L17.5993 18.9351C17.2207 18.5649 16.74 18.3165 16.219 18.222C15.6998 18.1279 15.1643 18.1909 14.6812 18.4029C14.2083 18.6067 13.805 18.944 13.5206 19.3734C13.2352 19.8043 13.0821 20.3092 13.08 20.826L13.08 20.83V21C13.08 21.2652 12.9746 21.5196 12.7871 21.7071C12.5996 21.8946 12.3452 22 12.08 22C11.8148 22 11.5604 21.8946 11.3729 21.7071C11.1854 21.5196 11.08 21.2652 11.08 21V20.91L11.0797 20.8866C11.0673 20.355 10.8952 19.8395 10.5859 19.407C10.2827 18.983 9.86132 18.6581 9.37477 18.4725C8.89796 18.2689 8.37163 18.2095 7.861 18.302C7.34 18.3965 6.85925 18.6449 6.48073 19.0151L6.48069 19.0151L6.47288 19.0229L6.41288 19.0829L6.4125 19.0833C6.31963 19.1763 6.20934 19.25 6.08794 19.3003C5.96654 19.3507 5.83641 19.3766 5.705 19.3766C5.57359 19.3766 5.44346 19.3507 5.32206 19.3003C5.20066 19.25 5.09037 19.1763 4.9975 19.0833L4.99671 19.0825C4.90374 18.9896 4.82998 18.8793 4.77965 18.7579C4.72933 18.6365 4.70343 18.5064 4.70343 18.375C4.70343 18.2436 4.72933 18.1135 4.77965 17.9921C4.82998 17.8707 4.90374 17.7604 4.99671 17.6675L4.9971 17.6671L5.0571 17.6071L5.05715 17.6072L5.06486 17.5993C5.43512 17.2207 5.68349 16.74 5.77796 16.219C5.87211 15.6998 5.80908 15.1643 5.59701 14.6811C5.3932 14.2082 5.05601 13.8049 4.62661 13.5206C4.19572 13.2352 3.6908 13.0821 3.17399 13.08V13.08H3.17H3C2.73478 13.08 2.48043 12.9746 2.29289 12.7871C2.10536 12.5996 2 12.3452 2 12.08C2 11.8148 2.10536 11.5604 2.29289 11.3729C2.48043 11.1854 2.73478 11.08 3 11.08H3.09L3.11338 11.0797C3.64498 11.0673 4.16054 10.8952 4.59305 10.5859C5.01698 10.2827 5.34189 9.86133 5.52745 9.37478C5.73113 8.89797 5.79055 8.37163 5.69796 7.861C5.60349 7.34 5.35512 6.85925 4.98486 6.48073L4.98491 6.48069L4.97711 6.47289L4.91711 6.41289L4.91671 6.4125C4.82374 6.31963 4.74998 6.20934 4.69965 6.08794C4.64933 5.96654 4.62343 5.83642 4.62343 5.705C4.62343 5.57358 4.64933 5.44346 4.69965 5.32206C4.74998 5.20066 4.82374 5.09037 4.91671 4.9975L4.9175 4.99671C5.01037 4.90374 5.12066 4.82998 5.24206 4.77965C5.36346 4.72933 5.49358 4.70343 5.625 4.70343C5.75642 4.70343 5.88654 4.72933 6.00794 4.77965C6.12934 4.82998 6.23963 4.90374 6.3325 4.99671L6.33289 4.99711L6.39289 5.05711L6.39285 5.05715L6.40073 5.06486C6.77925 5.43512 7.26 5.68349 7.781 5.77796C8.23333 5.85998 8.69798 5.82272 9.12961 5.67157C9.22042 5.65969 9.30938 5.63538 9.39393 5.59914C9.86895 5.39555 10.2741 5.0575 10.5594 4.62661C10.8448 4.19572 10.9979 3.6908 11 3.17399H11V3.17V3C11 2.73478 11.1054 2.48043 11.2929 2.29289ZM20.3149 15.4038L19.4 15L20.3191 15.3939C20.3691 15.2774 20.452 15.178 20.5577 15.1081C20.663 15.0383 20.7863 15.0008 20.9125 15H21C21.7957 15 22.5587 14.6839 23.1213 14.1213C23.6839 13.5587 24 12.7957 24 12C24 11.2043 23.6839 10.4413 23.1213 9.87868C22.5587 9.31607 21.7957 9 21 9H20.8325C20.7063 8.99921 20.583 8.96167 20.4777 8.89195C20.4068 8.84498 20.3461 8.78479 20.2988 8.71507C20.2845 8.64692 20.2631 8.58027 20.2349 8.51624C20.1824 8.39742 20.1668 8.26561 20.19 8.13782C20.2129 8.01142 20.2727 7.89468 20.3619 7.80231L20.4167 7.7475L20.4171 7.7471C20.6959 7.46857 20.917 7.13784 21.0679 6.77382C21.2189 6.40963 21.2966 6.01925 21.2966 5.625C21.2966 5.23075 21.2189 4.84037 21.0679 4.47618C20.9171 4.11233 20.6961 3.78174 20.4175 3.50329C20.1389 3.22436 19.808 3.00308 19.4438 2.85211C19.0796 2.70113 18.6892 2.62343 18.295 2.62343C17.9008 2.62343 17.5104 2.70113 17.1462 2.85211C16.782 3.00308 16.4511 3.22436 16.1725 3.50329L16.1177 3.55811C16.0253 3.64728 15.9086 3.70713 15.7822 3.73005C15.6544 3.75322 15.5226 3.73758 15.4038 3.68514L15.4038 3.68508L15.3939 3.68086C15.2774 3.63092 15.178 3.54801 15.1081 3.44232C15.0383 3.33704 15.0008 3.21374 15 3.0875V3C15 2.20435 14.6839 1.44129 14.1213 0.87868C13.5587 0.316071 12.7956 0 12 0C11.2044 0 10.4413 0.316071 9.87868 0.87868C9.31607 1.44129 9 2.20435 9 3V3.1675C8.99921 3.29374 8.96167 3.41704 8.89195 3.52232C8.84498 3.59323 8.78479 3.6539 8.71507 3.70122C8.64693 3.71549 8.58027 3.73687 8.51624 3.76514C8.39742 3.81758 8.26561 3.83322 8.13782 3.81005C8.01142 3.78713 7.89468 3.72728 7.80231 3.6381L7.7475 3.58329C7.46888 3.30436 7.13802 3.08308 6.77382 2.93211C6.40963 2.78113 6.01925 2.70343 5.625 2.70343C5.23075 2.70343 4.84037 2.78113 4.47618 2.93211C4.11216 3.08301 3.78143 3.30415 3.50289 3.58289C3.22415 3.86143 3.00301 4.19216 2.85211 4.55618C2.70113 4.92037 2.62343 5.31075 2.62343 5.705C2.62343 6.09925 2.70113 6.48963 2.85211 6.85382C3.00308 7.21802 3.22436 7.54888 3.50329 7.8275L3.5581 7.88231C3.64728 7.97468 3.70713 8.09142 3.73005 8.21782C3.75322 8.34561 3.73758 8.47742 3.68514 8.59624C3.67663 8.61551 3.66874 8.63505 3.66146 8.65482C3.61644 8.77723 3.53564 8.88327 3.42955 8.95914C3.32591 9.03327 3.20283 9.07526 3.07564 9.08H3C2.20435 9.08 1.44129 9.39607 0.87868 9.95868C0.316071 10.5213 0 11.2844 0 12.08C0 12.8756 0.316071 13.6387 0.87868 14.2013C1.44129 14.7639 2.20435 15.08 3 15.08H3.1675C3.29374 15.0808 3.41704 15.1183 3.52232 15.1881C3.62801 15.258 3.71092 15.3574 3.76086 15.4739L3.76081 15.474L3.76514 15.4838C3.81758 15.6026 3.83322 15.7344 3.81005 15.8622C3.78713 15.9886 3.72728 16.1053 3.63811 16.1977L3.58329 16.2525C3.30436 16.5311 3.08308 16.862 2.93211 17.2262C2.78113 17.5904 2.70343 17.9808 2.70343 18.375C2.70343 18.7692 2.78113 19.1596 2.93211 19.5238C3.08308 19.888 3.30436 20.2189 3.58329 20.4975C3.86174 20.7761 4.19233 20.9971 4.55618 21.1479C4.92037 21.2989 5.31075 21.3766 5.705 21.3766C6.09925 21.3766 6.48963 21.2989 6.85382 21.1479C7.21784 20.997 7.54857 20.7759 7.82712 20.4971L7.8275 20.4967L7.8823 20.4419C7.97467 20.3527 8.09142 20.2929 8.21782 20.27C8.34561 20.2468 8.47742 20.2624 8.59624 20.3149C8.61551 20.3234 8.63505 20.3313 8.65482 20.3385C8.77723 20.3836 8.88326 20.4644 8.95914 20.5704C9.03327 20.6741 9.07526 20.7972 9.08 20.9244V21C9.08 21.7957 9.39607 22.5587 9.95868 23.1213C10.5213 23.6839 11.2843 24 12.08 24C12.8757 24 13.6387 23.6839 14.2013 23.1213C14.7639 22.5587 15.08 21.7957 15.08 21V20.8325C15.0808 20.7063 15.1183 20.583 15.1881 20.4777C15.258 20.372 15.3574 20.2891 15.4739 20.2391L15.474 20.2392L15.4838 20.2349C15.6026 20.1824 15.7344 20.1668 15.8622 20.19C15.9886 20.2129 16.1053 20.2727 16.1977 20.3619L16.2525 20.4167L16.2529 20.4171C16.5314 20.6959 16.8622 20.917 17.2262 21.0679C17.5904 21.2189 17.9808 21.2966 18.375 21.2966C18.7692 21.2966 19.1596 21.2189 19.5238 21.0679C19.8878 20.917 20.2186 20.6959 20.4971 20.4171C20.497 20.4172 20.4968 20.4174 20.4967 20.4175L19.79 19.71L20.4975 20.4167C20.4974 20.4168 20.4972 20.417 20.4971 20.4171C20.7759 20.1386 20.997 19.8078 21.1479 19.4438C21.2989 19.0796 21.3766 18.6892 21.3766 18.295C21.3766 17.9008 21.2989 17.5104 21.1479 17.1462C20.997 16.7822 20.7758 16.4514 20.4971 16.1729L20.4967 16.1725L20.4419 16.1177C20.3527 16.0253 20.2929 15.9086 20.27 15.7822C20.2468 15.6544 20.2624 15.5226 20.3149 15.4038ZM10 12C10 10.8954 10.8954 10 12 10C13.1046 10 14 10.8954 14 12C14 13.1046 13.1046 14 12 14C10.8954 14 10 13.1046 10 12ZM12 8C9.79086 8 8 9.79086 8 12C8 14.2091 9.79086 16 12 16C14.2091 16 16 14.2091 16 12C16 9.79086 14.2091 8 12 8Z" />
    </symbol>

    <symbol id="transforms-16" viewBox="0 0 24 24" fill="none">
      <rect x="3" y="9" width="12" height="12" stroke-width="2" stroke-linecap="round" stroke-linejoin="round"/>
      <circle cx="15" cy="9" r="6" stroke-width="2"/>
    </symbol>

    <symbol id="connectors-16" viewBox="0 0 25 18" fill="none">
      <path d="M19.0001 7H17.7401C17.366 5.551 16.5929 4.23599 15.5088 3.2044C14.4246 2.1728 13.0728 1.46599 11.607 1.16428C10.1412 0.862561 8.6202 0.97804 7.21676 1.49759C5.81332 2.01714 4.58375 2.91993 3.66776 4.10338C2.75177 5.28683 2.1861 6.70348 2.03502 8.19235C1.88393 9.68123 2.1535 11.1826 2.81309 12.526C3.47267 13.8693 4.49583 15.0007 5.76629 15.7916C7.03676 16.5824 8.50359 17.0011 10.0001 17H19.0001C20.3262 17 21.598 16.4732 22.5356 15.5355C23.4733 14.5979 24.0001 13.3261 24.0001 12C24.0001 10.6739 23.4733 9.40215 22.5356 8.46447C21.598 7.52678 20.3262 7 19.0001 7Z" stroke-width="2" stroke-linecap="round" stroke-linejoin="round"/>
    </symbol>

    <symbol id="pipelines-16" viewBox="0 0 22 20" fill="none">
      <path d="M21 10H17L14 19L8 1L5 10H1" stroke-width="2" stroke-linecap="round" stroke-linejoin="round"/>
    </symbol>

    <symbol id="dashboard-16" viewBox="0 0 24 24">
      <path fill-rule="evenodd" clip-rule="evenodd" d="M4 12C4 7.58172 7.58172 4 12 4C13.0532 4 14.0565 4.20299 14.9748 4.57106C15.4874 4.77655 16.0695 4.52755 16.275 4.01492C16.4805 3.50229 16.2315 2.92013 15.7189 2.71465C14.568 2.25332 13.3123 2 12 2C6.47715 2 2 6.47715 2 12C2 14.447 2.88022 16.6911 4.34019 18.429C6.17301 20.6106 8.92473 22 12 22C15.1876 22 18.0272 20.5074 19.8567 18.1871C21.1986 16.4851 22 14.3347 22 12C22 11.0088 21.8555 10.0497 21.5858 9.14332C21.4282 8.61398 20.8714 8.31258 20.342 8.47012C19.8127 8.62766 19.5113 9.18448 19.6688 9.71382C19.8841 10.437 20 11.2041 20 12C20 13.4869 19.5951 14.8775 18.8892 16.0696L17.8288 15.1289L17.2071 14.5072C16.8166 14.1167 16.1834 14.1167 15.7929 14.5072C15.4024 14.8977 15.4024 15.5309 15.7929 15.9214L16.4358 16.5642C16.4498 16.5783 16.4643 16.592 16.4793 16.6052L17.6606 17.6532C16.2117 19.1042 14.2107 20 12 20C9.85246 20 7.90308 19.1547 6.46514 17.7763L7.58128 16.5472L8.20711 15.9214C8.59763 15.5309 8.59763 14.8977 8.20711 14.5072C7.81658 14.1167 7.18342 14.1167 6.79289 14.5072L6.15004 15.15C6.13869 15.1614 6.12762 15.173 6.11683 15.1849L5.19185 16.2035C4.43592 14.9821 4 13.5428 4 12ZM20.1557 6.25502C20.5727 5.89288 20.6172 5.26128 20.255 4.8443C19.8929 4.42731 19.2613 4.38285 18.8443 4.74498L12.6634 10.1128C12.4558 10.0398 12.2325 9.99998 12 9.99998C10.8954 9.99998 10 10.8954 10 12C10 13.1045 10.8954 14 12 14C13.1046 14 14 13.1045 14 12C14 11.8739 13.9883 11.7505 13.9658 11.6307L20.1557 6.25502Z"/>
    </symbol>

    <symbol id="star-16" viewBox="0 0 22 22">
      <path d="M11 1.5L14.09 7.76L21 8.77L16 13.64L17.18 20.52L11 17.27L4.82 20.52L6 13.64L1 8.77L7.91 7.76L11 1.5Z" stroke-width="2" stroke-linecap="round" stroke-linejoin="round"/>
    </symbol>

    <symbol id="view-16" viewBox="0 0 18 16" fill="none">
      <path d="M1.66675 8.00008C1.66675 8.00008 4.33341 2.66675 9.00008 2.66675C13.6667 2.66675 16.3334 8.00008 16.3334 8.00008C16.3334 8.00008 13.6667 13.3334 9.00008 13.3334C4.33341 13.3334 1.66675 8.00008 1.66675 8.00008Z" stroke-width="1.5" stroke-linecap="round" stroke-linejoin="round"/>
      <path d="M9 10C10.1046 10 11 9.10457 11 8C11 6.89543 10.1046 6 9 6C7.89543 6 7 6.89543 7 8C7 9.10457 7.89543 10 9 10Z" stroke-width="1.5" stroke-linecap="round" stroke-linejoin="round"/>
    </symbol>

    <svg id="shield-16" width="24" height="25" viewBox="0 0 24 25" fill="none">
      <path d="M12 22.5C12 22.5 20 18.5 20 12.5V5.5L12 2.5L4 5.5V12.5C4 18.5 12 22.5 12 22.5Z" stroke-width="2" stroke-linecap="round" stroke-linejoin="round"/>
    </svg>

    <svg id="key-16" width="24" height="25" viewBox="0 0 24 25" fill="none">
      <path d="M15.5003 8L19.0003 4.5M21.0003 2.5L19.0003 4.5L21.0003 2.5ZM11.3903 12.11C11.9066 12.6195 12.3171 13.226 12.598 13.8948C12.879 14.5635 13.0249 15.2813 13.0273 16.0066C13.0297 16.732 12.8887 17.4507 12.6122 18.1213C12.3357 18.7919 11.9293 19.4012 11.4164 19.9141C10.9035 20.4271 10.2942 20.8334 9.62358 21.1099C8.95296 21.3864 8.23427 21.5275 7.50891 21.525C6.78354 21.5226 6.06582 21.3767 5.39707 21.0958C4.72831 20.8148 4.12174 20.4043 3.61227 19.888C2.6104 18.8507 2.05604 17.4614 2.06857 16.0193C2.0811 14.5772 2.65953 13.1977 3.67927 12.178C4.69902 11.1583 6.07849 10.5798 7.52057 10.5673C8.96265 10.5548 10.352 11.1091 11.3893 12.111L11.3903 12.11ZM11.3903 12.11L15.5003 8L11.3903 12.11ZM15.5003 8L18.5003 11L22.0003 7.5L19.0003 4.5L15.5003 8Z" stroke-width="2" stroke-linecap="round" stroke-linejoin="round"/>
    </svg>

    <svg id="help-24" width="24" height="24" viewBox="0 0 24 24" fill="none"
      xmlns="http://www.w3.org/2000/svg">
      <path d="M12 22C17.5228 22 22 17.5228 22 12C22 6.47715 17.5228 2 12 2C6.47715 2 2 6.47715 2 12C2 17.5228 6.47715 22 12 22Z" stroke="#D6D7D9" stroke-width="2" stroke-linecap="round" stroke-linejoin="round"/>
      <path d="M9.08984 9.00008C9.32495 8.33175 9.789 7.76819 10.3998 7.40921C11.0106 7.05024 11.7287 6.91902 12.427 7.03879C13.1253 7.15857 13.7587 7.52161 14.2149 8.06361C14.6712 8.60561 14.9209 9.2916 14.9198 10.0001C14.9198 12.0001 11.9198 13.0001 11.9198 13.0001" stroke="#D6D7D9" stroke-width="2" stroke-linecap="round" stroke-linejoin="round"/>
      <path d="M12 17H12.01" stroke="#D6D7D9" stroke-width="2" stroke-linecap="round" stroke-linejoin="round"/>
    </svg>

    <svg id="alert-24" width="24" height="24" viewBox="0 0 24 24" fill="none">
      <path d="M12 22C17.5228 22 22 17.5228 22 12C22 6.47715 17.5228 2 12 2C6.47715 2 2 6.47715 2 12C2 17.5228 6.47715 22 12 22Z" stroke-width="2" stroke-linecap="round" stroke-linejoin="round"/>
      <path d="M12 8V12" stroke-width="2" stroke-linecap="round" stroke-linejoin="round"/>
      <path d="M12 16H12.01" stroke-width="2" stroke-linecap="round" stroke-linejoin="round"/>
    </svg>

    <symbol id="loading-spinner-24" fill="none" viewBox="0 0 24 24">
      <circle opacity="0.25" cx="12" cy="12" r="10" stroke="currentColor" stroke-width="4"></circle>
      <path opacity="0.75" fill="currentColor" d="M4 12a8 8 0 018-8V0C5.373 0 0 5.373 0 12h4zm2 5.291A7.962 7.962 0 014 12H0c0 3.042 1.135 5.824 3 7.938l3-2.647z"></path>
    </symbol>

    <symbol id="delete-16" viewBox="0 0 16 17" fill="none">
      <path fill-rule="evenodd" clip-rule="evenodd" fill="currentColor" d="M6.25419 2.75435C6.36358 2.64495 6.51196 2.5835 6.66667 2.5835H9.33333C9.48804 2.5835 9.63642 2.64495 9.74581 2.75435C9.85521 2.86375 9.91667 3.01212 9.91667 3.16683V3.75016H6.08333V3.16683C6.08333 3.01212 6.14479 2.86375 6.25419 2.75435ZM4.58333 3.75016V3.16683C4.58333 2.61429 4.80283 2.08439 5.19353 1.69369C5.58423 1.30299 6.11413 1.0835 6.66667 1.0835H9.33333C9.88587 1.0835 10.4158 1.30299 10.8065 1.69369C11.1972 2.08439 11.4167 2.61429 11.4167 3.16683V3.75016H12.6667L14 3.75016C14.4142 3.75016 14.75 4.08595 14.75 4.50016C14.75 4.91438 14.4142 5.25016 14 5.25016H13.4167V13.8335C13.4167 14.386 13.1972 14.9159 12.8065 15.3066C12.4158 15.6973 11.8859 15.9168 11.3333 15.9168H4.66667C4.11413 15.9168 3.58423 15.6973 3.19353 15.3066C2.80283 14.9159 2.58333 14.386 2.58333 13.8335V5.25016H2C1.58579 5.25016 1.25 4.91438 1.25 4.50016C1.25 4.08595 1.58579 3.75016 2 3.75016L3.33333 3.75016H4.58333ZM4.08333 5.25016V13.8335C4.08333 13.9882 4.14479 14.1366 4.25419 14.246C4.36358 14.3554 4.51196 14.4168 4.66667 14.4168H11.3333C11.488 14.4168 11.6364 14.3554 11.7458 14.246C11.8552 14.1366 11.9167 13.9882 11.9167 13.8335V5.25016H10.6667H5.33333H4.08333ZM6.66667 7.0835C7.08088 7.0835 7.41667 7.41928 7.41667 7.8335V11.8335C7.41667 12.2477 7.08088 12.5835 6.66667 12.5835C6.25245 12.5835 5.91667 12.2477 5.91667 11.8335V7.8335C5.91667 7.41928 6.25245 7.0835 6.66667 7.0835ZM10.0833 7.8335C10.0833 7.41928 9.74755 7.0835 9.33333 7.0835C8.91912 7.0835 8.58333 7.41928 8.58333 7.8335V11.8335C8.58333 12.2477 8.91912 12.5835 9.33333 12.5835C9.74755 12.5835 10.0833 12.2477 10.0833 11.8335V7.8335Z" />
    </symbol>

    <symbol id="spike-16" viewBox="0 0 16 15" fill="none">
      <path d="M14.6663 7.5H11.9997L9.99967 13.5L5.99967 1.5L3.99967 7.5H1.33301" stroke="currentColor" stroke-width="1.5" stroke-linecap="round" stroke-linejoin="round"/>
    </symbol>

    <symbol id="destination-16" viewBox="0 0 16 17" fill="none">
      <path d="M8.00065 15.1667C11.6825 15.1667 14.6673 12.1819 14.6673 8.50004C14.6673 4.81814 11.6825 1.83337 8.00065 1.83337C4.31875 1.83337 1.33398 4.81814 1.33398 8.50004C1.33398 12.1819 4.31875 15.1667 8.00065 15.1667Z" stroke="currentColor" stroke-width="1.33333" stroke-linecap="round" stroke-linejoin="round"/>
      <path d="M8 12.5C10.2091 12.5 12 10.7091 12 8.5C12 6.29086 10.2091 4.5 8 4.5C5.79086 4.5 4 6.29086 4 8.5C4 10.7091 5.79086 12.5 8 12.5Z" stroke="currentColor" stroke-width="1.33333" stroke-linecap="round" stroke-linejoin="round"/>
      <path d="M7.99935 9.83329C8.73573 9.83329 9.33268 9.23634 9.33268 8.49996C9.33268 7.76358 8.73573 7.16663 7.99935 7.16663C7.26297 7.16663 6.66602 7.76358 6.66602 8.49996C6.66602 9.23634 7.26297 9.83329 7.99935 9.83329Z" stroke="currentColor" stroke-width="1.33333" stroke-linecap="round" stroke-linejoin="round"/>
    </symbol>

    <symbol id="endpoint-16" viewBox="0 0 16 17" fill="none">
      <path d="M8.66667 1.83331L2 9.83331H8L7.33333 15.1666L14 7.16665H8L8.66667 1.83331Z" stroke="currentColor" stroke-width="1.5" stroke-linecap="round" stroke-linejoin="round"/>
    </symbol>

    <symbol id="source-16" viewBox="0 0 16 17" fill="none">
      <g clip-path="url(#clip0)">
        <path d="M5.33398 11.8334L8.00065 14.5L10.6673 11.8334" stroke="currentColor" stroke-width="1.33333" stroke-linecap="round" stroke-linejoin="round"/>
        <path d="M8 8.5V14.5" stroke="currentColor" stroke-width="1.33333" stroke-linecap="round" stroke-linejoin="round"/>
        <path d="M13.9195 12.56C14.4991 12.1524 14.9337 11.5707 15.1603 10.8994C15.3869 10.2281 15.3937 9.50197 15.1797 8.82651C14.9657 8.15104 14.542 7.56135 13.9702 7.143C13.3983 6.72464 12.708 6.4994 11.9995 6.49996H11.1595C10.959 5.71854 10.5838 4.99279 10.0622 4.37734C9.54063 3.7619 8.88623 3.2728 8.14827 2.94686C7.41031 2.62092 6.60803 2.46664 5.80182 2.49563C4.99561 2.52463 4.20648 2.73614 3.49384 3.11424C2.7812 3.49234 2.16362 4.02719 1.68759 4.67851C1.21157 5.32983 0.889502 6.08065 0.745641 6.87446C0.60178 7.66826 0.639874 8.48435 0.857054 9.2613C1.07423 10.0383 1.46484 10.7558 1.99947 11.36" stroke="currentColor" stroke-width="1.33333" stroke-linecap="round" stroke-linejoin="round"/>
      </g>
      <defs>
        <clipPath id="clip0">
          <rect width="16" height="16" fill="white" transform="translate(0 0.5)"/>
        </clipPath>
      </defs>
    </symbol>

    <svg id="alert-16" width="16" height="16" viewBox="0 0 16 16" fill="none"
      xmlns="http://www.w3.org/2000/svg">
      <path d="M8.00016 14.6667C11.6821 14.6667 14.6668 11.6819 14.6668 8.00004C14.6668 4.31814 11.6821 1.33337 8.00016 1.33337C4.31826 1.33337 1.3335 4.31814 1.3335 8.00004C1.3335 11.6819 4.31826 14.6667 8.00016 14.6667Z" stroke="currentColor" stroke-width="1.5" stroke-linecap="round" stroke-linejoin="round"/>
      <path d="M8 5.33337V8.00004" stroke="currentColor" stroke-width="1.5" stroke-linecap="round" stroke-linejoin="round"/>
      <path d="M8 10.6666H8.00667" stroke="currentColor" stroke-width="1.5" stroke-linecap="round" stroke-linejoin="round"/>
    </svg>

    <svg id="close-12" width="12" height="12" viewBox="0 0 12 12" fill="none"
      xmlns="http://www.w3.org/2000/svg">
      <path d="M1 12C0.7 12 0.5 11.9 0.3 11.7C-0.1 11.3 -0.1 10.7 0.3 10.3L4.6 6L0.4 1.7C0 1.3 0 0.7 0.4 0.3C0.8 -0.1 1.4 -0.1 1.8 0.3L6 4.6L10.3 0.3C10.7 -0.1 11.3 -0.1 11.7 0.3C12.1 0.7 12.1 1.3 11.7 1.7L7.4 6L11.7 10.3C12.1 10.7 12.1 11.3 11.7 11.7C11.3 12.1 10.7 12.1 10.3 11.7L6 7.4L1.7 11.7C1.5 11.9 1.3 12 1 12Z" fill="currentColor"/>
    </svg>

    <svg id="check" width="14" height="10" viewBox="0 0 14 10" fill="none"
      xmlns="http://www.w3.org/2000/svg">
      <path d="M12.3332 1.5L4.99984 8.83333L1.6665 5.5" stroke="currentColor" stroke-width="1.5" stroke-linecap="round" stroke-linejoin="round"/>
    </svg>

    <svg id="bolt" width="16" height="17" viewBox="0 0 16 17" fill="none"
      xmlns="http://www.w3.org/2000/svg">
      <path d="M8.66667 1.83325L2 9.83325H8L7.33333 15.1666L14 7.16659H8L8.66667 1.83325Z" stroke-width="1.5" stroke-linecap="round" stroke-linejoin="round"/>
    </svg>

    <svg id="checkmark" viewBox="0 0 16 17" fill="none"
      xmlns="http://www.w3.org/2000/svg">
      <path d="M13.3334 4.5L6.00008 11.8333L2.66675 8.5" stroke-width="1.5" stroke-linecap="round" stroke-linejoin="round"/>
    </svg>


    <svg id="filledCheckmark" width="54" height="54" viewBox="0 0 54 54" fill="none"
      xmlns="http://www.w3.org/2000/svg">
      <rect x="0.5" width="53" height="54" rx="26.5" fill="currentFill"/>
      <path d="M37.6663 19L22.9997 33.6667L16.333 27" stroke="white" stroke-width="4" stroke-linecap="round" stroke-linejoin="round"/>
    </svg>


    <svg id="chat-16" width="14" height="15" viewBox="0 0 14 15" fill="none"
      xmlns="http://www.w3.org/2000/svg">
      <path d="M13 7.16669C13.0023 8.0466 12.7967 8.91461 12.4 9.70002C11.9296 10.6412 11.2065 11.4328 10.3116 11.9862C9.41677 12.5396 8.3855 12.8329 7.33333 12.8334C6.45342 12.8356 5.58541 12.6301 4.8 12.2334L1 13.5L2.26667 9.70002C1.86995 8.91461 1.66437 8.0466 1.66667 7.16669C1.66707 6.11452 1.96041 5.08325 2.51381 4.18839C3.06722 3.29352 3.85884 2.5704 4.8 2.10002C5.58541 1.70331 6.45342 1.49772 7.33333 1.50002H7.66667C9.05623 1.57668 10.3687 2.16319 11.3528 3.14726C12.3368 4.13132 12.9233 5.44379 13 6.83335V7.16669Z" stroke-width="1.5" stroke-linecap="round" stroke-linejoin="round"/>
    </svg>

    <symbol id="lightning-16" viewBox="0 0 16 17" fill="none" xmlns="http://www.w3.org/2000/svg">
      <path d="M8.66667 1.83325L2 9.83325H8L7.33333 15.1666L14 7.16659H8L8.66667 1.83325Z" stroke-width="1.5" stroke-linecap="round" stroke-linejoin="round"/>
    </symbol>

    <symbol id="plus-16" viewBox="0 0 16 16"
      xmlns="http://www.w3.org/2000/svg">
      <path fill-rule="evenodd" clip-rule="evenodd" d="M8.75 3.33334C8.75 2.91912 8.41421 2.58334 8 2.58334C7.58578 2.58334 7.25 2.91912 7.25 3.33334V7.25H3.33333C2.91911 7.25 2.58333 7.58579 2.58333 8C2.58333 8.41422 2.91911 8.75 3.33333 8.75H7.25V12.6667C7.25 13.0809 7.58578 13.4167 8 13.4167C8.41421 13.4167 8.75 13.0809 8.75 12.6667V8.75H12.6667C13.0809 8.75 13.4167 8.41422 13.4167 8C13.4167 7.58579 13.0809 7.25 12.6667 7.25H8.75V3.33334Z"/>
    </symbol>

    <symbol id="connect-24" xmlns="http://www.w3.org/2000/svg" viewBox="0 0 26 24" fill="none">
      <path d="M19.9999 16.9001C21.2151 16.6533 22.2952 15.9639 23.0306 14.9655C23.766 13.9672 24.1043 12.7312 23.9796 11.4976C23.855 10.2639 23.2765 9.12052 22.3563 8.28943C21.4361 7.45834 20.2399 6.99881 18.9999 7.00006H17.7399C17.4086 5.71737 16.764 4.53705 15.8638 3.56504C14.9637 2.59304 13.8363 1.85979 12.5828 1.43112C11.3292 1.00245 9.98891 0.891787 8.68207 1.10906C7.37523 1.32634 6.1428 1.86475 5.09544 2.67596C4.04808 3.48718 3.21856 4.54579 2.68137 5.75677C2.14418 6.96774 1.91612 8.29317 2.01769 9.61405C2.11925 10.9349 2.54725 12.2099 3.26326 13.3245C3.97926 14.4391 4.96087 15.3585 6.11993 16.0001" stroke-width="2" stroke-linecap="round" stroke-linejoin="round"/>
      <path d="M14 11L10 17H16L12 23" stroke-width="2" stroke-linecap="round" stroke-linejoin="round"/>
    </symbol>

    <symbol id="alert-24" width="24" height="24" viewBox="0 0 24 24" fill="none">
      <path d="M12 22C17.5228 22 22 17.5228 22 12C22 6.47715 17.5228 2 12 2C6.47715 2 2 6.47715 2 12C2 17.5228 6.47715 22 12 22Z" stroke-width="2" stroke-linecap="round" stroke-linejoin="round"/>
      <path d="M12 8V12" stroke-width="2" stroke-linecap="round" stroke-linejoin="round"/>
      <path d="M12 16H12.01" stroke-width="2" stroke-linecap="round" stroke-linejoin="round"/>
    </symbol>

    <symbol id="alert-triangle-16" width="24" height="24" fill="none">
      <path d="M10.2898 3.85923L1.81978 17.9992C1.64514 18.3017 1.55274 18.6445 1.55177 18.9937C1.55079 19.343 1.64127 19.6864 1.8142 19.9898C1.98714 20.2931 2.2365 20.546 2.53748 20.7231C2.83847 20.9002 3.18058 20.9954 3.52978 20.9992H20.4698C20.819 20.9954 21.1611 20.9002 21.4621 20.7231C21.7631 20.546 22.0124 20.2931 22.1854 19.9898C22.3583 19.6864 22.4488 19.343 22.4478 18.9937C22.4468 18.6445 22.3544 18.3017 22.1798 17.9992L13.7098 3.85923C13.5315 3.56533 13.2805 3.32235 12.981 3.15371C12.6814 2.98508 12.3435 2.89648 11.9998 2.89648C11.656 2.89648 11.3181 2.98508 11.0186 3.15371C10.7191 3.32235 10.468 3.56533 10.2898 3.85923V3.85923Z" stroke="currentColor" stroke-width="2" stroke-linecap="round" stroke-linejoin="round"/>
      <path d="M12 9V13" stroke="black" stroke-width="2" stroke-linecap="round" stroke-linejoin="round"/>
      <path d="M12 17H12.01" stroke="black" stroke-width="2" stroke-linecap="round" stroke-linejoin="round"/>
    </symbol>
  </defs>
</svg>
